HIERARCHY
ROOT Hips
{
	OFFSET 0.000000 0.000000 0.000000
	CHANNELS 6 Xposition Yposition Zposition Zrotation Yrotation Xrotation 
	JOINT LHipJoint
	{
		OFFSET 0.000000 0.000000 0.000000
		CHANNELS 3 Zrotation Yrotation Xrotation
		JOINT LeftUpLeg
		{
			OFFSET 1.363060 -1.794630 0.839290
			CHANNELS 3 Zrotation Yrotation Xrotation
			JOINT LeftLeg
			{
				OFFSET 2.448110 -6.726130 0.000000
				CHANNELS 3 Zrotation Yrotation Xrotation
				JOINT LeftFoot
				{
					OFFSET 2.562200 -7.039590 0.000000
					CHANNELS 3 Zrotation Yrotation Xrotation
					JOINT LeftToeBase
					{
						OFFSET 0.157640 -0.433110 2.322550
						CHANNELS 3 Zrotation Yrotation Xrotation
						End Site
						{
							OFFSET 0.000000 0.000000 0.000000
						}
					}
				}
			}
		}
	}
	JOINT RHipJoint
	{
		OFFSET 0.000000 0.000000 0.000000
		CHANNELS 3 Zrotation Yrotation Xrotation
		JOINT RightUpLeg
		{
			OFFSET -1.305520 -1.794630 0.839290
			CHANNELS 3 Zrotation Yrotation Xrotation
			JOINT RightLeg
			{
				OFFSET -2.542530 -6.985550 0.000000
				CHANNELS 3 Zrotation Yrotation Xrotation
				JOINT RightFoot
				{
					OFFSET -2.568260 -7.056230 0.000000
					CHANNELS 3 Zrotation Yrotation Xrotation
					JOINT RightToeBase
					{
						OFFSET -0.164730 -0.452590 2.363150
						CHANNELS 3 Zrotation Yrotation Xrotation
						End Site
						{
							OFFSET 0.000000 0.000000 0.000000
						}
					}
				}
			}
		}
	}
	JOINT LowerBack
	{
		OFFSET 0.000000 0.000000 0.000000
		CHANNELS 3 Zrotation Yrotation Xrotation
		JOINT Spine
		{
			OFFSET 0.028270 2.035590 -0.193380
			CHANNELS 3 Zrotation Yrotation Xrotation
			JOINT Spine1
			{
				OFFSET 0.056720 2.048850 -0.042750
				CHANNELS 3 Zrotation Yrotation Xrotation
				JOINT Neck
				{
					OFFSET 0.000000 0.000000 0.000000
					CHANNELS 3 Zrotation Yrotation Xrotation
					JOINT Neck1
					{
						OFFSET -0.054170 1.746240 0.172020
						CHANNELS 3 Zrotation Yrotation Xrotation
						JOINT Head
						{
							OFFSET 0.104070 1.761360 -0.123970
							CHANNELS 3 Zrotation Yrotation Xrotation
							End Site
							{
								OFFSET 0.000000 0.000000 0.000000
							}
						}
					}
				}
				JOINT LeftShoulder
				{
					OFFSET 0.000000 0.000000 0.000000
					CHANNELS 3 Zrotation Yrotation Xrotation
					JOINT LeftArm
					{
						OFFSET 3.362410 1.200890 -0.311210
						CHANNELS 3 Zrotation Yrotation Xrotation
						JOINT LeftForeArm
						{
							OFFSET 4.983000 -0.000000 -0.000000
							CHANNELS 3 Zrotation Yrotation Xrotation
							JOINT LeftHand
							{
								OFFSET 3.483560 -0.000000 -0.000000
								CHANNELS 3 Zrotation Yrotation Xrotation
								JOINT LeftFingerBase
								{
									OFFSET 0.000000 0.000000 0.000000
									CHANNELS 3 Zrotation Yrotation Xrotation
									JOINT LeftHandIndex1
									{
										OFFSET 0.715260 -0.000000 -0.000000
										CHANNELS 3 Zrotation Yrotation Xrotation
										End Site
										{
											OFFSET 0.000000 0.000000 0.000000
										}
									}
								}
								JOINT LThumb
								{
									OFFSET 0.000000 0.000000 0.000000
									CHANNELS 3 Zrotation Yrotation Xrotation
									End Site
									{
										OFFSET 0.000000 0.000000 0.000000
									}
								}
							}
						}
					}
				}
				JOINT RightShoulder
				{
					OFFSET 0.000000 0.000000 0.000000
					CHANNELS 3 Zrotation Yrotation Xrotation
					JOINT RightArm
					{
						OFFSET -3.136600 1.374050 -0.404650
						CHANNELS 3 Zrotation Yrotation Xrotation
						JOINT RightForeArm
						{
							OFFSET -5.241900 -0.000000 -0.000000
							CHANNELS 3 Zrotation Yrotation Xrotation
							JOINT RightHand
							{
								OFFSET -3.444170 -0.000000 -0.000000
								CHANNELS 3 Zrotation Yrotation Xrotation
								JOINT RightFingerBase
								{
									OFFSET 0.000000 0.000000 0.000000
									CHANNELS 3 Zrotation Yrotation Xrotation
									JOINT RightHandIndex1
									{
										OFFSET -0.622530 -0.000000 -0.000000
										CHANNELS 3 Zrotation Yrotation Xrotation
										End Site
										{
											OFFSET 0.000000 0.000000 0.000000
										}
									}
								}
								JOINT RThumb
								{
									OFFSET 0.000000 0.000000 0.000000
									CHANNELS 3 Zrotation Yrotation Xrotation
									End Site
									{
										OFFSET 0.000000 0.000000 0.000000
									}
								}
							}
						}
					}
				}
			}
		}
	}
}
MOTION
Frames: 11
Frame Time: 0.008333
47.849730 17.425124 3.800784 -155.509592 -82.975591 160.883098 18.907369 4.000127 -2.006197 -38.465402 -26.638540 12.532481 -13.676628 -1.413264 -0.248145 -0.634834 21.938574 -26.719947 8.905200 -16.746300 -55.761700 -24.630517 -3.279308 -4.170204 51.179449 23.478445 18.942641 14.883506 6.073375 -8.913589 -0.991691 -23.910735 -27.171719 -4.930600 13.305200 -40.522000 2.597935 0.472642 12.438217 1.099154 0.921739 -4.382688 -0.457176 0.149867 -13.644054 -0.788835 -4.454153 -23.367008 0.712961 -7.001179 16.323224 -2.512700 -3.347900 13.742500 8.918170 -7.290494 0.859592 -86.132556 10.335523 0.565419 18.870338 -29.975675 -5.653512 -2.512976 1.370912 -15.775365 -9.864528 34.311503 -4.203100 -7.125000 0.000000 0.000000 -43.210800 56.970500 -14.504100 -9.945429 7.052927 2.131357 79.854218 -14.723872 36.580651 -23.630960 38.028438 -7.001243 0.070812 -3.050927 -3.477519 -26.590928 -23.295250 9.646300 7.125000 0.000000 0.000000 1.877900 -51.975200 -0.322600 
47.856454 17.424257 3.802194 -155.878562 -82.961105 161.252365 18.897057 3.987010 -2.039752 -38.405488 -26.454567 12.263831 -13.656696 -1.252929 0.038126 -0.569422 21.452023 -26.437044 8.821500 -16.691500 -55.470700 -24.568885 -3.285373 -4.150457 51.050510 23.567333 18.713245 14.865228 5.885642 -8.592035 -1.211857 -22.983384 -28.546332 -3.762600 11.837600 -35.159800 2.552739 0.467529 12.515270 1.082442 0.923249 -4.340614 -0.500073 0.148185 -13.533155 -0.706234 -4.403483 -23.698229 0.820102 -6.946809 16.403125 -2.468400 -3.294700 13.873400 8.889411 -7.273770 0.864608 -86.098956 10.286175 0.575734 19.298527 -30.376914 -5.818439 -2.538898 1.313710 -16.216284 -10.612859 34.415581 -4.617000 -7.125000 0.000000 0.000000 -44.015700 56.932600 -14.810600 -9.949494 7.053082 2.130372 79.881867 -14.646890 36.733868 -23.862441 38.250552 -7.091031 0.104392 -3.058793 -4.379410 -26.658578 -23.270832 9.652900 7.125000 0.000000 0.000000 1.816100 -51.948800 -0.310800 
47.862637 17.422304 3.804255 -155.825959 -82.933237 161.185444 18.867060 3.983942 -2.046136 -38.383325 -26.517213 12.214357 -13.624310 -1.156344 0.222436 -0.231877 20.169247 -27.190254 8.462500 -16.449100 -54.211900 -24.512985 -3.285403 -4.151856 50.991731 23.598489 18.594951 14.841588 5.773789 -8.404087 -1.448566 -22.037314 -29.834901 -2.568500 9.961500 -28.852000 2.575631 0.469684 12.592790 1.075108 0.940447 -4.292516 -0.542220 0.153999 -13.416209 -0.677530 -4.392376 -23.928376 0.894240 -6.927791 16.387968 -2.432300 -3.271000 13.917100 8.859036 -7.265248 0.880963 -86.040049 10.392186 0.796615 19.842627 -30.900706 -6.030202 -2.557594 1.255342 -16.842106 -11.141422 34.567451 -4.925900 -7.125000 0.000000 0.000000 -44.671700 56.966800 -15.137200 -9.947188 7.048295 2.129855 79.881631 -14.562813 36.870758 -24.036250 38.417547 -7.159286 0.126480 -3.062804 -5.184272 -26.793507 -23.158098 9.645600 7.125000 0.000000 0.000000 1.673400 -51.841900 -0.282000 
47.868711 17.418291 3.806533 -155.920708 -82.915206 161.326483 18.794395 3.988133 -2.067977 -38.116357 -26.197665 11.850275 -13.579724 -1.039979 0.394942 0.040221 18.876731 -27.546747 8.027600 -16.139500 -52.662100 -24.463631 -3.284544 -4.136243 50.906112 23.685634 18.448264 14.808537 5.685485 -8.272561 -1.662093 -21.166704 -30.910541 -1.515200 7.773500 -22.028100 2.565863 0.475060 12.666634 1.075478 0.955050 -4.264538 -0.537798 0.162332 -13.368759 -0.697812 -4.408387 -24.053111 0.927630 -6.931431 16.319131 -2.411400 -3.270800 13.900700 8.835485 -7.272364 0.899070 -86.046562 10.634102 1.613955 20.327857 -31.433943 -6.215165 -2.510686 1.311901 -16.752199 -9.704072 34.613764 -4.162800 -7.125000 0.000000 0.000000 -43.403500 57.243500 -14.888600 -9.934327 7.046915 2.130420 79.838820 -14.557199 37.089643 -24.225603 38.584915 -7.230055 0.151924 -3.065266 -6.032337 -26.918962 -23.048976 9.636800 7.125000 0.000000 0.000000 1.540900 -51.738800 -0.255800 
47.876954 17.416990 3.809895 -156.360804 -82.907967 161.847625 18.764703 3.964990 -2.087438 -38.021403 -26.100505 11.580156 -13.565055 -0.958172 0.493846 0.105866 18.554013 -27.653053 7.860600 -16.015800 -52.059000 -24.410614 -3.284358 -4.109919 50.757468 23.802784 18.251587 14.769141 5.594629 -8.144194 -1.857089 -20.358114 -31.868678 -0.660500 5.197800 -14.473500 2.526444 0.461701 12.767330 1.071240 0.942090 -4.260764 -0.526017 0.154221 -13.412106 -0.815919 -4.378745 -24.118799 1.180703 -6.834211 16.216039 -2.226300 -3.216900 13.868100 8.786886 -7.280804 0.924149 -85.994127 11.066425 2.526978 20.890635 -32.020510 -6.432537 -2.482980 1.325523 -16.944458 -8.842907 34.689715 -3.715100 -7.125000 0.000000 0.000000 -42.699300 57.454900 -14.809400 -9.926310 7.062472 2.132352 79.790385 -14.606421 37.365326 -24.390116 38.723838 -7.288920 0.177357 -3.068863 -6.870898 -27.042995 -22.986543 9.648300 7.125000 0.000000 0.000000 1.419900 -51.684500 -0.233800 
47.886390 17.416447 3.814234 -156.584522 -82.915452 162.241155 18.781336 3.930475 -2.125618 -37.921455 -25.905734 11.131744 -13.582139 -0.822917 0.678327 -0.255558 19.827936 -26.688759 8.144900 -16.224800 -53.083000 -24.327737 -3.278613 -4.066247 50.565899 23.960646 17.966011 14.698915 5.504235 -8.055997 -2.191187 -19.034570 -33.450649 -0.000300 -0.111100 0.305100 2.560534 0.417588 12.765257 1.059743 0.893151 -4.264234 -0.573541 0.117147 -13.422924 -0.984114 -4.387765 -24.145922 1.534157 -6.778854 16.094156 -1.973700 -3.175500 13.820900 8.716231 -7.280805 0.957495 -85.789618 11.603862 3.492790 21.593299 -32.724555 -6.738521 -2.487636 1.292843 -18.002894 -8.440756 35.346482 -3.567300 -7.125000 0.000000 0.000000 -43.007000 58.024900 -15.562200 -9.928107 7.073518 2.129903 79.758169 -14.594612 37.678841 -24.505420 38.825980 -7.323659 0.200406 -3.071689 -7.661654 -27.119826 -22.866018 9.614100 7.125000 0.000000 0.000000 1.335500 -51.560900 -0.215800 
47.895067 17.416556 3.817162 -157.069536 -82.944073 162.973471 18.807942 3.869426 -2.149864 -37.889828 -25.950633 10.683539 -13.601142 -0.685194 0.837877 -0.640444 21.273853 -25.811363 8.553900 -16.511900 -54.534200 -24.321816 -3.262297 -4.035013 50.413727 24.140191 17.690638 14.679952 5.475959 -8.083044 -2.113736 -19.283031 -33.192857 -0.001700 0.270100 -0.742100 2.588045 0.371680 12.676915 1.038453 0.834717 -4.274003 -0.669729 0.075855 -13.423969 -1.049807 -4.440903 -24.018469 1.722502 -6.814927 15.801538 -1.846000 -3.185800 13.612800 8.662109 -7.279505 0.985949 -85.512828 11.873664 4.225607 22.160862 -33.301345 -7.041401 -2.517990 1.257259 -19.544734 -8.235565 36.753318 -3.584400 -7.125000 0.000000 0.000000 -44.305400 59.098900 -17.346700 -9.924824 7.068343 2.129870 79.750944 -14.558778 37.984090 -24.584441 38.900930 -7.343945 0.220127 -3.075403 -8.395671 -27.192356 -22.754469 9.581700 7.125000 0.000000 0.000000 1.258000 -51.445500 -0.199700 
47.900924 17.418617 3.818355 -157.619543 -82.970521 163.782160 18.812942 3.804447 -2.149205 -37.892510 -26.300863 10.491459 -13.611342 -0.703022 0.695207 -0.817925 22.067377 -25.691495 8.608600 -16.549200 -54.726600 -24.318326 -3.245859 -4.009112 50.290829 24.314898 17.466287 14.657380 5.485600 -8.181492 -2.057977 -19.505091 -33.081496 -0.006800 0.531600 -1.460700 2.521211 0.375656 12.555879 1.035123 0.823636 -4.289845 -0.666195 0.074898 -13.448694 -1.041569 -4.504031 -23.751831 1.744796 -6.887529 15.423386 -1.835200 -3.226800 13.307100 8.639399 -7.291728 1.009590 -85.413103 12.149752 5.503238 22.596562 -33.820254 -7.262347 -2.461464 1.362382 -19.601027 -5.842343 37.448271 -2.288900 -7.125000 0.000000 0.000000 -42.797600 60.055600 -17.610400 -9.907364 7.063517 2.134100 79.704957 -14.600708 38.268442 -24.663006 38.959155 -7.360768 0.240526 -3.075481 -9.170223 -27.252931 -22.574607 9.513700 7.125000 0.000000 0.000000 1.181200 -51.258200 -0.182100 
47.906673 17.422196 3.820308 -157.361575 -82.990889 163.741587 18.776751 3.780270 -2.146122 -37.672436 -26.369587 10.195265 -13.588441 -0.703576 0.597641 -0.821747 21.953276 -25.599274 8.564100 -16.518900 -54.569900 -24.315862 -3.220291 -3.995204 50.246450 24.433167 17.247334 14.640604 5.483806 -8.262598 -2.031996 -19.612749 -33.048620 -0.007300 0.551600 -1.515700 2.558542 0.374360 12.473203 1.041729 0.820550 -4.301151 -0.672745 0.071671 -13.455627 -0.998421 -4.529580 -23.658435 1.677189 -6.932165 15.287783 -1.884600 -3.253900 13.191400 8.632871 -7.305960 1.023947 -85.381133 12.439913 6.701243 23.070603 -34.217210 -7.303378 -2.384521 1.326361 -18.947458 -5.266776 35.033130 -1.862600 -7.125000 0.000000 0.000000 -39.776300 58.377700 -14.471500 -9.890379 7.062897 2.132569 79.655030 -14.655912 38.572950 -24.736254 39.010578 -7.373619 0.260530 -3.074697 -9.957801 -27.312370 -22.363906 9.430500 7.125000 0.000000 0.000000 1.101400 -51.037900 -0.163900 
47.911988 17.424799 3.824429 -157.211131 -83.032377 163.796805 18.789344 3.751145 -2.149495 -37.575008 -26.471071 9.982247 -13.601121 -0.739638 0.444205 -1.140384 23.138163 -24.946544 8.606000 -16.547400 -54.717400 -24.302687 -3.202171 -3.976201 50.147299 24.527198 17.019745 14.619429 5.477594 -8.331369 -2.005675 -19.677902 -32.990217 -0.005700 0.488100 -1.341100 2.598563 0.365930 12.410161 1.044041 0.810216 -4.313288 -0.693695 0.061946 -13.457426 -1.035949 -4.573899 -23.694786 1.699427 -6.987237 15.327795 -1.870300 -3.277600 13.225600 8.584249 -7.309963 1.044357 -85.288641 12.897650 7.621088 24.028947 -35.171935 -7.793729 -2.376784 1.357376 -19.574588 -4.147127 36.272414 -1.309700 -7.125000 0.000000 0.000000 -39.972800 59.534400 -15.698100 -9.872242 7.063200 2.124743 79.611804 -14.737583 38.858582 -24.807836 39.063567 -7.389000 0.278609 -3.075038 -10.776805 -27.424868 -22.166825 9.372100 7.125000 0.000000 0.000000 0.975200 -50.839000 -0.140300 
47.916001 17.426426 3.829310 -157.217332 -83.069719 164.016310 18.902579 3.677491 -2.107434 -38.042046 -27.667964 10.594211 -13.672531 -1.029090 -0.132105 -1.662643 25.720135 -25.336009 8.645600 -16.574200 -54.856300 -24.281905 -3.181149 -3.968290 50.018106 24.631969 16.785827 14.597685 5.456065 -8.364438 -1.984305 -19.717069 -32.958840 -0.004900 0.452200 -1.242500 2.624850 0.360843 12.339968 1.042809 0.802362 -4.325420 -0.721979 0.054966 -13.459343 -1.075722 -4.617801 -23.781062 1.730965 -7.043988 15.429043 -1.853400 -3.297900 13.312000 8.541692 -7.302452 1.054170 -85.024552 13.107122 8.318220 24.515969 -35.678551 -8.115189 -2.408445 1.345914 -21.197909 -3.468773 38.189582 -0.984100 -7.125000 0.000000 0.000000 -41.434400 61.111500 -17.979400 -9.862142 7.063319 2.117740 79.602679 -14.803349 39.090562 -24.851511 39.096112 -7.394531 0.300038 -3.079157 -11.631293 -27.510575 -22.046035 9.337100 7.125000 0.000000 0.000000 0.890700 -50.714900 -0.125400 
